<?xml version="1.0" standalone="no"?>
<!DOCTYPE svg PUBLIC "-//W3C//DTD SVG 1.1//EN" "http://www.w3.org/Graphics/SVG/1.1/DTD/svg11.dtd" >
<svg xmlns="http://www.w3.org/2000/svg">
<metadata></metadata>
<defs>
<font id="fzlantinghei-l-gbkregular" horiz-adv-x="2048" vert-adv-y="2048" >
<font-face units-per-em="2048" ascent="1632" descent="-416" />
<missing-glyph horiz-adv-x="568" />
<glyph horiz-adv-x="0" vert-adv-y="0" />
<glyph horiz-adv-x="682" />
<glyph unicode=" "  horiz-adv-x="568" />
<glyph unicode="&#x09;" horiz-adv-x="568" />
<glyph unicode="&#xa0;" horiz-adv-x="568" />
<glyph unicode="!" horiz-adv-x="616" d="M200 1512h184l-48 -1136h-96zM208 -48v168h160v-168h-160z" />
<glyph unicode="&#x22;" horiz-adv-x="776" d="M104 1520h176l-40 -528h-96zM464 1520h184l-40 -528h-96z" />
<glyph unicode="#" horiz-adv-x="1232" d="M16 416l24 96h248l80 392h-248l24 96h240l96 464h104l-88 -464h320l88 464h104l-88 -464h256l-24 -96h-248l-80 -392h248l-16 -96h-256l-96 -464h-104l96 464h-320l-96 -464h-104l96 464h-256zM392 512h320l80 392h-320z" />
<glyph unicode="$" horiz-adv-x="1288" d="M80 384l120 48q48 -344 368 -384v664q-464 120 -432 416q24 368 432 408v168h112v-176q376 -32 432 -392l-128 -48q-64 280 -304 328v-592q504 -128 480 -464q-32 -384 -480 -424v-192h-112v200q-408 24 -488 440zM256 1128q-8 -200 312 -288v576q-296 -40 -312 -288z M680 48q336 24 352 320q24 224 -352 320v-640z" />
<glyph unicode="%" horiz-adv-x="1984" d="M128 1136q16 400 328 416q304 -8 312 -416q-8 -384 -320 -392q-304 16 -320 392zM232 1136q8 -288 224 -304q208 16 216 312q-8 296 -216 312q-216 -16 -224 -320zM488 -96l864 1640h112l-864 -1640h-112zM1176 288q8 392 328 408q304 -16 312 -408q-8 -376 -328 -384 q-296 16 -312 384zM1280 288q8 -280 208 -304q224 8 232 312q-8 296 -216 312q-216 0 -224 -320z" />
<glyph unicode="&#x26;" horiz-adv-x="1576" d="M96 320q-8 304 400 496q-192 216 -192 384q32 312 352 336q336 -16 360 -328q8 -264 -360 -416q128 -152 456 -440q96 192 112 416l136 -24q-40 -280 -160 -464q144 -128 328 -256l-96 -96q-80 64 -296 248q-232 -248 -576 -248q-440 16 -464 392zM224 352 q16 -312 344 -328q296 0 488 232q-248 224 -496 488q-328 -168 -336 -392zM424 1184q-16 -112 168 -328q304 144 288 344q-8 232 -224 248q-224 -16 -232 -264z" />
<glyph unicode="'" horiz-adv-x="416" d="M96 1528h184l-40 -536h-96z" />
<glyph unicode="(" horiz-adv-x="736" d="M144 608q8 560 376 1048h96q-344 -472 -344 -1040q-8 -568 336 -1016h-88q-360 440 -376 1008z" />
<glyph unicode=")" horiz-adv-x="736" d="M80 -392q352 448 344 1008q0 568 -344 1048h96q368 -488 376 -1048q-16 -568 -376 -1008h-96z" />
<glyph unicode="*" horiz-adv-x="896" d="M56 1216l40 144l296 -144l-40 336h144l-48 -344l296 144l40 -136l-328 -40l248 -256l-112 -80l-168 304l-168 -304l-112 88l240 248z" />
<glyph unicode="+" horiz-adv-x="1336" d="M120 672v112h472v472h120v-472h472v-112h-472v-472h-120v472h-472z" />
<glyph unicode="," horiz-adv-x="584" d="M184 -376q128 104 136 344h-128v192h208v-184q0 -272 -176 -392z" />
<glyph unicode="-" horiz-adv-x="1336" d="M120 664v120h1072v-120h-1072z" />
<glyph unicode="." horiz-adv-x="640" d="M184 -32v192h208v-192h-208z" />
<glyph unicode="/" horiz-adv-x="600" d="M0 -72l456 1608h104l-448 -1608h-112z" />
<glyph unicode="0" horiz-adv-x="1248" d="M96 720q8 792 512 816q496 -16 504 -816q-8 -784 -496 -792q-520 8 -520 792zM240 720q0 -704 368 -696q360 -8 360 696q0 720 -376 712q-344 -32 -352 -712z" />
<glyph unicode="1" horiz-adv-x="1248" d="M248 976v136q368 168 464 424h88v-1584h-128v1296q-208 -192 -424 -272z" />
<glyph unicode="2" horiz-adv-x="1216" d="M72 -32v96q152 288 496 544q368 272 360 496q-8 312 -344 320q-264 -24 -352 -304l-120 56q120 368 496 360q432 -16 464 -408q24 -304 -392 -584q-328 -240 -448 -456h848v-120h-1008z" />
<glyph unicode="3" horiz-adv-x="1232" d="M72 312l144 40q48 -320 360 -320q384 0 384 352q-32 304 -392 328h-120v104h56q360 8 384 320q-24 272 -296 288q-288 -8 -344 -304l-136 48q88 360 472 368q440 -16 456 -400q-8 -248 -320 -360q368 -112 384 -408q-24 -424 -512 -440q-432 0 -520 384z" />
<glyph unicode="4" horiz-adv-x="1248" d="M32 344v64l760 1128h96v-1088h224v-104h-224v-392h-120v392h-736zM184 448h584v856z" />
<glyph unicode="5" horiz-adv-x="1232" d="M88 320l136 40q48 -328 368 -336q368 16 384 424q-16 384 -376 408q-224 -8 -360 -176l-88 16l88 808h792v-120h-688l-56 -560q128 152 344 152q448 -24 480 -512q-16 -528 -504 -536q-440 0 -520 392z" />
<glyph unicode="6" horiz-adv-x="1248" d="M80 680q8 856 568 856q336 -16 424 -328l-120 -48q-56 280 -320 272q-416 -8 -416 -760q104 280 440 280q424 -24 456 -504q-32 -488 -488 -520q-544 0 -544 752zM224 536q8 -504 408 -520q320 16 336 416q-8 408 -336 416q-320 0 -408 -312z" />
<glyph unicode="7" horiz-adv-x="1232" d="M104 1384v120h1000v-88q-520 -720 -624 -1464h-144q112 696 608 1432h-840z" />
<glyph unicode="8" horiz-adv-x="1256" d="M88 344q24 296 352 416q-272 128 -288 360q32 392 464 416q408 -32 448 -416q-16 -240 -272 -360q328 -128 344 -432q-24 -392 -520 -400q-512 8 -528 416zM232 344q32 -304 384 -328q344 24 376 312q-24 368 -384 392q-344 -24 -376 -376zM304 1136q8 -312 312 -328 q280 8 296 312q-24 280 -296 312q-288 -24 -312 -296z" />
<glyph unicode="9" horiz-adv-x="1248" d="M88 992q32 504 504 544q536 8 528 -776q0 -824 -560 -832q-344 8 -424 304l128 48q56 -280 312 -264q392 16 400 768q-112 -280 -416 -296q-432 32 -472 504zM224 1008q16 -384 344 -408q312 24 408 304q0 528 -408 520q-320 -32 -344 -416z" />
<glyph unicode=":" horiz-adv-x="624" d="M184 -24v208h208v-208h-208zM184 864v208h208v-208h-208z" />
<glyph unicode=";" horiz-adv-x="624" d="M184 -376q128 104 136 344h-128v192h208v-184q0 -272 -176 -392zM192 864v208h208v-208h-208z" />
<glyph unicode="&#x3c;" horiz-adv-x="1336" d="M128 648v144l1048 616v-144l-968 -544l968 -536v-152z" />
<glyph unicode="=" horiz-adv-x="1304" d="M120 424v112h1024v-112h-1024zM120 912v112h1024v-112h-1024z" />
<glyph unicode="&#x3e;" horiz-adv-x="1320" d="M120 32v152l968 536l-968 544v144l1056 -616v-144z" />
<glyph unicode="?" horiz-adv-x="1232" d="M96 1152q96 400 552 392q408 -24 440 -400q16 -240 -280 -440q-176 -120 -168 -296v-48h-128v56q-8 216 200 360q256 176 232 376q-40 248 -312 280q-344 16 -408 -328zM488 -40v160h168v-160h-168z" />
<glyph unicode="@" horiz-adv-x="2272" d="M120 512q72 968 1032 1024q912 -32 960 -872q-32 -608 -520 -640q-248 0 -216 376q-96 -368 -432 -376q-352 8 -344 440q64 568 552 608q184 -8 240 -160q40 0 40 64q8 56 16 80h128q-64 -336 -104 -672q-40 -304 168 -272q320 32 344 536q-56 728 -840 784 q-816 -64 -888 -912q24 -840 888 -864q488 0 776 224l56 -72q-352 -264 -848 -256q-968 32 -1008 960zM744 448q-24 -352 248 -328q344 48 400 560q0 264 -232 288q-368 -40 -416 -520z" />
<glyph unicode="A" horiz-adv-x="1504" d="M0 -48l632 1560h168l648 -1560h-152l-200 488h-752l-192 -488h-152zM392 552h656l-328 872z" />
<glyph unicode="B" horiz-adv-x="1488" d="M168 -48v1560h608q456 -24 488 -384q-24 -280 -352 -360q392 -72 416 -408q-24 -400 -512 -408h-648zM296 56h496q392 0 392 328q-24 288 -424 312h-464v-640zM296 816h440q344 16 376 304q-16 264 -376 272h-440v-576z" />
<glyph unicode="C" horiz-adv-x="1624" d="M112 696q32 800 728 840q440 -16 616 -432l-160 -40q-144 344 -480 352q-504 -56 -552 -704q32 -632 544 -680q416 16 512 424l168 -40q-136 -480 -664 -488q-672 32 -712 768z" />
<glyph unicode="D" horiz-adv-x="1608" d="M176 -48v1560h544q720 -24 744 -784v-32q0 -745 -730 -744h-30h-528zM312 48h392q616 8 616 655v17q-24 640 -608 672h-400v-1344z" />
<glyph unicode="E" horiz-adv-x="1488" d="M176 -48v1560h1112v-128h-976v-568h920v-120h-920v-624h1024v-120h-1160z" />
<glyph unicode="F" horiz-adv-x="1368" d="M184 -48v1560h1040v-120h-904v-576h784l8 -120h-792v-744h-136z" />
<glyph unicode="G" horiz-adv-x="1728" d="M120 704q32 800 744 832q520 -8 680 -440l-160 -40q-128 352 -536 360q-528 -56 -576 -704q40 -632 608 -680q376 0 544 200v384h-512v120h648v-560q-192 -248 -664 -248q-736 32 -776 776z" />
<glyph unicode="H" horiz-adv-x="1608" d="M176 -48v1560h144v-696h936v696h136v-1560h-136v744h-936v-744h-144z" />
<glyph unicode="I" horiz-adv-x="584" d="M208 -48v1560h136v-1560h-136z" />
<glyph unicode="J" horiz-adv-x="1112" d="M64 344l136 24q0 -330 245 -330q17 0 35 2q12 -1 23 -1q265 0 265 361v1112h144v-1104q1 -17 1 -33q0 -447 -413 -447h-28h-14q-370 0 -394 416z" />
<glyph unicode="K" horiz-adv-x="1488" d="M160 -48v1560h144v-904l888 904h192l-656 -648l704 -912h-200l-584 832l-344 -344v-488h-144z" />
<glyph unicode="L" horiz-adv-x="1248" d="M160 -48v1560h136v-1432h832v-128h-968z" />
<glyph unicode="M" horiz-adv-x="1864" d="M168 -48v1560h208l536 -1368l552 1368h208v-1560h-136v1440l-584 -1440h-80l-576 1440v-1440h-128z" />
<glyph unicode="N" horiz-adv-x="1608" d="M168 -48v1560h176l920 -1416v1416h128v-1560h-168l-928 1440v-1440h-128z" />
<glyph unicode="O" horiz-adv-x="1744" d="M112 696q32 800 768 840q688 -48 736 -824q-32 -760 -760 -784q-712 32 -744 768zM256 712q32 -632 592 -680q576 32 608 680q-48 648 -592 704q-552 -56 -608 -704z" />
<glyph unicode="P" horiz-adv-x="1488" d="M176 -48v1560h672q464 -24 512 -456q-8 -448 -528 -456h-520v-648h-136zM312 720h488q400 8 408 344q-16 320 -408 328h-488v-672z" />
<glyph unicode="Q" horiz-adv-x="1744" d="M96 704q32 800 768 832q680 -48 736 -816q-16 -616 -568 -760l384 -376l-192 -40l-336 400h-48q-712 32 -744 760zM240 720q40 -624 592 -680q568 32 600 680q-48 648 -584 696q-560 -56 -608 -696z" />
<glyph unicode="R" horiz-adv-x="1608" d="M176 -48v1560h728q488 -24 520 -416q0 -400 -496 -432l592 -712h-192l-552 720h-456v-720h-144zM320 792h544q408 8 408 312q-8 280 -408 288h-544v-600z" />
<glyph unicode="S" horiz-adv-x="1488" d="M96 368l144 56q53 -393 463 -394q24 0 49 2q416 8 432 320q3 18 3 35q0 213 -467 309q-562 106 -562 400q0 16 2 32q32 392 536 416q504 0 592 -408l-152 -48q-88 336 -424 336q-392 -8 -408 -296q0 -4 -1 -8q0 -210 425 -296q610 -114 610 -446q0 -17 -2 -34 q-40 -400 -576 -416q-20 -1 -38 -1q-541 0 -626 441z" />
<glyph unicode="T" horiz-adv-x="1368" d="M56 1384v128h1232v-128h-544v-1432h-144v1432h-544z" />
<glyph unicode="U" horiz-adv-x="1624" d="M176 592v920h144v-912v-20q0 -549 428 -549q18 0 36 1q19 -1 38 -1q442 0 442 533v36v912h136v-920v-17q0 -647 -601 -647h-14.5h-14.5q-594 0 -594 647v17z" />
<glyph unicode="V" horiz-adv-x="1512" d="M32 1512h152l560 -1456l552 1456h160l-632 -1560h-168z" />
<glyph unicode="W" horiz-adv-x="2120" d="M32 1512h144l368 -1400l424 1400h152l408 -1400l368 1400h144l-440 -1560h-144l-416 1408l-432 -1408h-144z" />
<glyph unicode="X" horiz-adv-x="1504" d="M8 -48l616 792l560 768h168l-552 -768h-176l-536 768h160l552 -768l-616 -792h-176zM624 744h176l608 -792h-184z" />
<glyph unicode="Y" horiz-adv-x="1488" d="M8 1512h152l544 -808l528 808h176l-640 -928v-640h-144v640z" />
<glyph unicode="Z" horiz-adv-x="1368" d="M40 32l1024 1352h-928v128h1104v-96l-1016 -1336h1048v-128h-1232v80z" />
<glyph unicode="[" horiz-adv-x="600" d="M152 -360v2008h392v-96h-280v-1800h280v-112h-392z" />
<glyph unicode="\" horiz-adv-x="600" d="M0 1536h104l448 -1608h-96z" />
<glyph unicode="]" horiz-adv-x="600" d="M24 -248h288v1800h-280v96h392v-2008h-400v112z" />
<glyph unicode="^" horiz-adv-x="1048" d="M56 712l384 840h120l376 -840h-128l-288 696h-32l-288 -696h-144z" />
<glyph unicode="_" horiz-adv-x="1320" d="M0 -304h1288v-88h-1288v88z" />
<glyph unicode="`" horiz-adv-x="704" d="M96 1536h192l144 -328h-88z" />
<glyph unicode="a" horiz-adv-x="1248" d="M88 208q8 320 408 360q344 32 424 96q2 24 2 46q0 290 -278 291q-14 0 -28 -1q-19 1 -38 1q-292 0 -322 -241l-128 40q78 312 476 312h20h16q417 0 417 -402q0 -15 -1 -30v-472q-1 -29 -1 -54q0 -153 41 -194h-112q-48 48 -48 200q-176 -232 -472 -232q-352 8 -376 280z M224 224q8 -192 288 -192q376 24 408 352v208q-64 -72 -368 -120q-328 -47 -328 -239v-9z" />
<glyph unicode="b" horiz-adv-x="1232" d="M144 -40v1552h136v-656q128 240 360 248q448 -24 472 -608q-8 -552 -432 -560q-22 -2 -43 -2q-253 0 -357 266v-240h-136zM280 440q64 -400 352 -424q344 8 352 480q-8 496 -384 504q-288 -56 -320 -376v-184z" />
<glyph unicode="c" horiz-adv-x="1128" d="M88 504q16 576 496 600q368 -8 456 -312l-136 -48q-72 232 -304 256q-368 0 -368 -496q0 -480 368 -480q296 0 320 296l136 -32q-61 -361 -432 -361q-16 0 -32 1q-496 8 -504 576z" />
<glyph unicode="d" horiz-adv-x="1232" d="M80 496q24 584 480 608q216 -16 352 -248v656h136v-1552h-136v240q-109 -264 -376 -264h-16q-424 16 -440 560zM208 496q8 -464 360 -480q288 24 344 424v184q-40 320 -320 376q-376 -8 -384 -504z" />
<glyph unicode="e" horiz-adv-x="1248" d="M88 496q24 584 528 608q488 -16 504 -608q0 -32 0 -16h-888q16 -432 376 -456q288 0 360 248l136 -40q-78 -304 -460 -304h-20q-520 16 -536 568zM232 584h744q-16 384 -360 408q-360 -40 -384 -408z" />
<glyph unicode="f" horiz-adv-x="624" d="M0 976v104h184v160v17q0 279 256 279q112 0 208 -40l-32 -88q-48 24 -128 24h-14q-154 0 -154 -168v-16l-8 -168h240v-104h-240v-1016h-128v1016h-184z" />
<glyph unicode="g" horiz-adv-x="1248" d="M72 528q24 552 488 576q224 -8 368 -240v216h136v-1000q2 -30 2 -58q0 -478 -499 -478h-31q-280 8 -408 152l48 64q152 -104 344 -112h16q392 0 392 369v15v224q-98 -265 -376 -265q-16 0 -32 1q-432 16 -448 536zM200 528q16 -432 360 -456q328 48 368 400v176 q-40 288 -336 352q-376 -16 -392 -472z" />
<glyph unicode="h" horiz-adv-x="1232" d="M144 -48v1560h136v-656q144 248 400 256h14q363 0 362 -414v-18v-720h-136v696q0 352 -288 352q-288 -56 -352 -360v-696h-136z" />
<glyph unicode="i" horiz-adv-x="464" d="M152 -48v1128h128v-1128h-128zM152 1336v152h128v-152h-128z" />
<glyph unicode="j" horiz-adv-x="464" d="M-104 -416l32 64q16 -11 50 -11q17 0 38 3q144 0 144 160v1280h128v-1280v-16q0 -240 -232 -240q-40 0 -160 40zM160 1336v152h128v-152h-128z" />
<glyph unicode="k" horiz-adv-x="1112" d="M144 -48v1560h136v-992l544 560h176l-432 -432l496 -688h-168l-408 616l-208 -208v-416h-136z" />
<glyph unicode="l" horiz-adv-x="464" d="M144 -40v1552h128v-1552h-128z" />
<glyph unicode="m" horiz-adv-x="1848" d="M144 -40v1120h128v-232q136 264 344 264q280 0 352 -288q120 288 352 288h14q347 0 346 -398v-18v-736h-128v696v20q0 332 -252 332h-12q-256 -48 -312 -360v-688h-128v696v21q0 331 -245 331h-11q-264 -48 -320 -344v-704h-128z" />
<glyph unicode="n" horiz-adv-x="1248" d="M144 -40v1120h128v-224q144 248 408 256q376 0 376 -432v-720h-128v696q-8 336 -296 352q-288 -48 -360 -360v-688h-128z" />
<glyph unicode="o" horiz-adv-x="1248" d="M72 488q16 600 544 616q480 -32 504 -592q-8 -576 -528 -584q-496 24 -520 560zM208 496q8 -464 400 -480q360 16 368 488q-24 464 -368 504q-392 -8 -400 -512z" />
<glyph unicode="p" horiz-adv-x="1232" d="M144 -448v1528h128v-224q152 248 360 248q456 -24 480 -608q-8 -552 -440 -560q-23 -2 -46 -2q-244 0 -354 242v-624h-128zM272 440q8 -416 360 -424q344 8 352 480q-8 480 -384 504q-304 -40 -328 -376v-184z" />
<glyph unicode="q" horiz-adv-x="1232" d="M72 496q24 584 480 608q208 -16 360 -248v224h128v-1528h-128v648q-117 -264 -384 -264h-16q-424 24 -440 560zM200 496q16 -456 352 -480q320 32 360 424v184q-40 336 -328 376q-376 -24 -384 -504z" />
<glyph unicode="r" horiz-adv-x="776" d="M144 -48v1128h128v-208q72 224 272 232q120 0 192 -48l-56 -120q-56 40 -128 40q-128 0 -208 -112q-72 -104 -72 -304v-608h-128z" />
<glyph unicode="s" horiz-adv-x="1152" d="M72 232l128 40q62 -256 328 -256h16q304 8 312 216q1 8 1 16q0 163 -313 224q-432 47 -432 318v10q32 296 408 312q360 -8 424 -280l-136 -40q-48 208 -280 208q-248 -16 -272 -200q-1 -7 -1 -14q0 -156 337 -210q408 -72 408 -336q-8 -304 -456 -312h-19 q-367 0 -453 304z" />
<glyph unicode="t" horiz-adv-x="616" d="M24 976v104h160v320l128 64v-384h216v-104h-216v-808v-16q0 -145 126 -145q12 0 26 1q48 0 64 16l24 -72q-56 -16 -144 -16h-15q-210 0 -209 216v16v808h-160z" />
<glyph unicode="u" horiz-adv-x="1232" d="M136 336v744h128v-728q8 -328 288 -336q312 64 360 344v720h128v-1120h-128v200q-144 -232 -408 -232h-14q-354 0 -354 391v17z" />
<glyph unicode="v" horiz-adv-x="1112" d="M24 1080h152l352 -1032l368 1032h144l-440 -1120h-152z" />
<glyph unicode="w" horiz-adv-x="1608" d="M8 1080h136l288 -1024h16l256 1024h152l248 -1024h8l304 1024h136l-368 -1120h-152l-256 1016l-256 -1016h-160z" />
<glyph unicode="x" horiz-adv-x="1112" d="M16 -40h160l424 552l-384 568h-152l400 -560zM464 520l400 -560h160l-424 552l400 568h-160z" />
<glyph unicode="y" horiz-adv-x="1112" d="M32 1080h152l352 -976l368 976h144q-416 -1048 -488 -1216q-101 -316 -291 -316q-22 0 -45 4q-96 8 -152 32l32 72q16 -8 80 -8q12 -1 24 -1q127 0 200 161q24 56 64 168z" />
<glyph unicode="z" horiz-adv-x="1112" d="M40 32l784 936h-728v112h912v-64l-784 -944h808v-112h-992v72z" />
<glyph unicode="{" horiz-adv-x="736" d="M56 576v88q240 8 240 232v464q-24 312 360 304v-88q-272 8 -256 -224v-464q-8 -192 -184 -248v-40q184 -64 184 -248v-432q-16 -248 256 -240v-80q-384 -8 -360 296v448q0 224 -240 232z" />
<glyph unicode="|" horiz-adv-x="552" d="M208 -344v2016h112v-2016h-112z" />
<glyph unicode="}" horiz-adv-x="736" d="M56 -320q272 -8 256 240v432q8 184 176 248v40q-168 64 -176 248v464q8 232 -256 224v88q384 8 360 -304v-464q0 -224 232 -232v-88q-232 -16 -232 -232v-448q24 -304 -360 -296v80z" />
<glyph unicode="~" horiz-adv-x="1304" d="M88 624v128q136 96 288 96q128 8 296 -72q144 -64 256 -64q168 8 248 80v-120q-96 -80 -256 -80q-168 0 -280 56q-136 80 -272 80q-160 0 -280 -104z" />
<glyph unicode="&#xa4;" d="M512 296l112 112q-112 136 -112 312t112 304l-112 112l72 72l112 -112q136 112 304 112t296 -112l120 112l64 -72l-112 -112q112 -128 112 -304t-112 -312l112 -112l-64 -64l-112 120q-136 -120 -304 -120t-312 120l-104 -120zM624 720q32 -352 368 -384q160 0 256 104 q120 112 120 280q-32 344 -368 384q-344 -40 -376 -384z" />
<glyph unicode="&#xa7;" d="M544 800q-8 192 208 296q-112 136 -104 208q32 304 352 320q352 -16 360 -320h-136q-8 208 -232 208q-192 -24 -200 -184q-8 -96 160 -192l296 -168q224 -112 216 -296q0 -184 -224 -304q120 -128 120 -232q-24 -248 -352 -272q-376 8 -384 304h144q0 -200 208 -200 q240 0 240 160q8 96 -120 176l-432 272q-112 80 -120 224zM672 840q0 -120 104 -184l392 -240q176 96 168 216q0 120 -136 208l-368 216q-160 -72 -160 -216z" />
<glyph unicode="&#xa8;" d="M760 1264v168h152v-168h-152zM1096 1264v168h144v-168h-144z" />
<glyph unicode="&#xad;" horiz-adv-x="1336" d="M120 664v120h1072v-120h-1072z" />
<glyph unicode="&#xb0;" d="M112 1144q24 256 280 280q256 -24 280 -280q-24 -264 -280 -280q-256 16 -280 280zM168 1144q24 -208 216 -232q200 16 224 232q-24 208 -224 232q-192 -32 -216 -232z" />
<glyph unicode="&#xb1;" d="M488 168v120h1032v-120h-1032zM488 832v120h456v384h120v-384h456v-120h-456v-392h-120v392h-456z" />
<glyph unicode="&#xb7;" d="M896 608v224h224v-224h-224z" />
<glyph unicode="&#xd7;" d="M536 336l384 384l-384 384l80 80l384 -384l384 384l72 -80l-384 -384l384 -384l-72 -72l-384 384l-384 -384z" />
<glyph unicode="&#xe0;" d="M520 496q24 584 480 608q216 -8 352 -256v248h136v-1136h-136v248q-112 -280 -392 -272q-424 16 -440 560zM648 496q16 -456 352 -472q328 48 352 416v184q-48 344 -320 376q-376 -24 -384 -504zM816 1512h160l160 -248h-88z" />
<glyph unicode="&#xe1;" d="M520 496q24 584 480 608q216 -8 352 -256v248h136v-1136h-136v248q-112 -280 -392 -272q-424 16 -440 560zM648 496q16 -456 352 -472q328 48 352 416v184q-48 344 -320 376q-376 -24 -384 -504zM880 1264l232 248h88l-160 -248h-160z" />
<glyph unicode="&#xe8;" d="M488 496q24 584 528 608q488 -16 504 -608q0 -32 0 -16h-888q16 -432 376 -456q288 0 360 248l136 -40q-80 -312 -480 -304q-520 16 -536 568zM632 584h744q-16 384 -360 408q-360 -40 -384 -408zM816 1512h160l160 -248h-88z" />
<glyph unicode="&#xe9;" d="M488 496q24 584 528 608q488 -16 504 -608q0 -32 0 -16h-888q16 -432 376 -456q288 0 360 248l136 -40q-80 -312 -480 -304q-520 16 -536 568zM632 584h744q-16 384 -360 408q-360 -40 -384 -408zM880 1264l232 248h88l-160 -248h-160z" />
<glyph unicode="&#xea;" d="M488 496q24 584 528 608q488 -16 504 -608q0 -32 0 -16h-888q16 -432 376 -456q288 0 360 248l136 -40q-80 -312 -480 -304q-520 16 -536 568zM632 584h744q-16 384 -360 408q-360 -40 -384 -408zM744 1264l176 248h168l176 -248h-112l-144 200l-152 -200h-112z" />
<glyph unicode="&#xec;" d="M792 1512h160l160 -248h-96zM912 -48v1128h128v-1128h-128z" />
<glyph unicode="&#xed;" d="M856 1264l224 248h96l-160 -248h-160zM912 -48v1128h128v-1128h-128z" />
<glyph unicode="&#xf2;" d="M480 488q16 600 544 616q480 -32 504 -592q-8 -576 -528 -584q-496 24 -520 560zM616 496q8 -464 400 -480q360 16 368 488q-24 464 -368 504q-392 -8 -400 -512zM816 1512h160l160 -248h-88z" />
<glyph unicode="&#xf3;" d="M480 488q16 600 544 616q480 -32 504 -592q-8 -576 -528 -584q-496 24 -520 560zM616 496q8 -464 400 -480q360 16 368 488q-24 464 -368 504q-392 -8 -400 -512zM880 1264l232 248h88l-160 -248h-160z" />
<glyph unicode="&#xf7;" d="M440 664v120h1128v-120h-1128zM928 232v168h152v-168h-152zM928 1040v168h152v-168h-152z" />
<glyph unicode="&#xf9;" d="M552 336v744h128v-728q8 -328 288 -336q312 64 360 344v720h128v-1120h-128v200q-144 -232 -408 -232q-376 -8 -368 408zM816 1512h160l160 -248h-88z" />
<glyph unicode="&#xfa;" d="M552 336v744h128v-728q8 -328 288 -336q312 64 360 344v720h128v-1120h-128v200q-144 -232 -408 -232q-376 -8 -368 408zM880 1264l232 248h88l-160 -248h-160z" />
<glyph unicode="&#xfc;" d="M552 336v744h128v-728q8 -328 288 -336q312 64 360 344v720h128v-1120h-128v200q-144 -232 -408 -232q-376 -8 -368 408zM760 1248v168h152v-168h-152zM1096 1248v168h144v-168h-144z" />
<glyph unicode="&#x2000;" horiz-adv-x="856" vert-adv-y="0" />
<glyph unicode="&#x2001;" horiz-adv-x="1712" vert-adv-y="0" />
<glyph unicode="&#x2002;" horiz-adv-x="856" vert-adv-y="0" />
<glyph unicode="&#x2003;" horiz-adv-x="1712" vert-adv-y="0" />
<glyph unicode="&#x2004;" horiz-adv-x="570" vert-adv-y="0" />
<glyph unicode="&#x2005;" horiz-adv-x="428" vert-adv-y="0" />
<glyph unicode="&#x2006;" horiz-adv-x="285" vert-adv-y="0" />
<glyph unicode="&#x2007;" horiz-adv-x="285" vert-adv-y="0" />
<glyph unicode="&#x2008;" horiz-adv-x="214" vert-adv-y="0" />
<glyph unicode="&#x2009;" horiz-adv-x="342" vert-adv-y="0" />
<glyph unicode="&#x200a;" horiz-adv-x="95" vert-adv-y="0" />
<glyph unicode="&#x2010;" horiz-adv-x="1336" d="M120 664v120h1072v-120h-1072z" />
<glyph unicode="&#x2011;" horiz-adv-x="1336" d="M120 664v120h1072v-120h-1072z" />
<glyph unicode="&#x2012;" horiz-adv-x="1336" d="M120 664v120h1072v-120h-1072z" />
<glyph unicode="&#x2013;" d="M632 688h784v64h-784v-64z" />
<glyph unicode="&#x2014;" d="M0 640v128h2000v-128h-2000z" />
<glyph unicode="&#x2018;" d="M1440 1128v192q0 264 176 392l48 -40q-136 -96 -144 -336h128v-208h-208z" />
<glyph unicode="&#x2019;" d="M344 1152q144 112 136 344h-128v216h216v-208q0 -256 -184 -392z" />
<glyph unicode="&#x201c;" d="M1224 1128v192q0 272 176 392l48 -40q-136 -96 -144 -328h136v-216h-216zM1592 1128v192q0 272 168 392l48 -40q-128 -96 -136 -328h128v-216h-208z" />
<glyph unicode="&#x201d;" d="M192 1152q128 96 144 344h-136v208h208v-200q0 -256 -168 -392zM560 1152q128 96 144 344h-144v208h216v-200q0 -256 -176 -392z" />
<glyph unicode="&#x2026;" d="M360 608v224h224v-224h-224zM888 608v224h224v-224h-224zM1424 608v224h224v-224h-224z" />
<glyph unicode="&#x202f;" horiz-adv-x="342" vert-adv-y="0" />
<glyph unicode="&#x205f;" horiz-adv-x="428" vert-adv-y="0" />
<glyph unicode="&#x20ac;" d="M16 520v104h168v72q0 64 16 136h-184v96h192q112 576 552 600q416 16 544 -288l-136 -72q-112 256 -416 248q-312 -32 -408 -488h728v-96h-744v-120v-88h744v-104h-736q96 -464 440 -488q344 -8 416 296l136 -80q-128 -352 -560 -320q-472 24 -568 592h-184z" />
<glyph unicode="&#x25fc;" horiz-adv-x="1080" vert-adv-y="2160" d="M0 0v1080h1080v-1080h-1080z" />
</font>
</defs>
</svg>
